<?xml version="1.0" standalone="no"?>
<!DOCTYPE svg PUBLIC "-//W3C//DTD SVG 1.1//EN" "http://www.w3.org/Graphics/SVG/1.1/DTD/svg11.dtd" >
<!--
2013-9-30: Created.
-->
<svg>
<metadata>
Created by iconfont
</metadata>
<defs>

<font id="iconfont" horiz-adv-x="1024" >
  <font-face
    font-family="iconfont"
    font-weight="500"
    font-stretch="normal"
    units-per-em="1024"
    ascent="896"
    descent="-128"
  />
    <missing-glyph />
    
    <glyph glyph-name="zhanghuanquan" unicode="&#59037;" d="M783.087627 768.039653 240.903164 768.039653c-62.377676 0-112.942305-50.564629-112.942305-112.953561l0-542.17423c0-62.387909 50.564629-112.951515 112.942305-112.951515l542.184463 0c62.365396 0 112.951515 50.563606 112.951515 112.951515L896.039141 655.086092C896.039141 717.475024 845.453023 768.039653 783.087627 768.039653zM715.535091 462.140685c0-287.699468-190.58464-324.740082-198.615547-326.195224-1.830695-0.310062-3.683902-0.48607-5.538133-0.48607-1.853208 0-3.683902 0.176009-5.536087 0.48607-8.030907 1.455141-197.22692 38.495756-197.22692 326.195224l0 93.384877c0 8.626471 3.606131 16.854876 9.927093 22.722514 5.813403 5.405103 13.480013 8.405437 21.399379 8.405437 0.683569 0 1.36816-0.021489 2.062985-0.065492 0.474814-0.044002 5.504364-0.353041 13.379729-0.353041 13.016455 0 38.915311 0.88209 63.007009 6.794753 36.775578 8.978489 74.345242 33.423227 75.624375 34.283828 5.250584 3.462868 11.31879 5.228071 17.362436 5.228071 6.068206 0 12.133342-1.766226 17.383926-5.251607 10.457166-6.949272 46.350654-26.670429 77.457116-34.260292 24.089651-5.91164 49.504484-6.794753 62.543452-6.794753 7.874341 0 12.904914 0.309038 13.346983 0.353041 0.705058 0.044002 1.432629 0.065492 2.13871 0.065492 7.898901 0 15.553231-2.977821 21.333888-8.382924 6.332219-5.867638 9.949606-29.671787 9.949606-38.298258L715.535091 462.140685zM591.662853 551.178557c-39.755446 9.883091-80.237439 36.114522-80.237439 36.114522s-38.759769-26.231431-78.537727-36.114522c-24.266683-6.04467-49.615001-7.170307-64.660672-7.170307-8.803503 0-14.229073 0.375553-14.229073 0.375553s0-23.781636 0-87.317695c0-247.769037 157.426449-276.360212 157.426449-276.360212s158.708652 28.590152 158.708652 276.360212c0 63.536059 0 87.317695 0 87.317695s-5.448082-0.375553-14.208607-0.375553C640.860345 544.009274 615.974561 545.133887 591.662853 551.178557zM511.999488 338.709491c-37.282115 0-67.483974 30.42187-67.483974 67.903529 0 37.503149 30.201859 67.903529 67.483974 67.903529 37.262672 0 67.48602-30.400381 67.48602-67.903529C579.485509 369.131361 549.26216 338.709491 511.999488 338.709491zM511.999488 451.904553c-25.12626 0-45.511543-20.274766-45.511543-45.26902 0-24.994254 20.385283-45.26902 45.511543-45.26902 25.12933 0 45.491077 20.274766 45.491077 45.26902C557.490565 431.629787 537.128819 451.904553 511.999488 451.904553z"  horiz-adv-x="1024" />

    
    <glyph glyph-name="shouye" unicode="&#58921;" d="M1016.428071 420.365704c0.003054 0.182214 0.026467 0.35832 0.026467 0.541552 0 0.228022-0.028503 0.446882-0.033592 0.673886-0.011197 0.335925-0.027485 0.668796-0.050898 1.003703-0.519157 8.742189-5.026657 16.394149-11.749225 21.167335L530.825339 869.65191c-0.132334 0.151675-0.242273 0.314548-0.376643 0.463169-5.300486 5.895989-12.537121 8.997695-19.882677 9.24913-0.379697 0.018323-0.76143 0.004072-1.142144 0.007126-0.380715-0.002036-0.762448 0.011197-1.143162-0.007126-7.344538-0.251435-14.581173-3.35314-19.882677-9.24913-0.13437-0.148621-0.244309-0.311494-0.374607-0.463169L11.674914 441.458728c-0.180178-0.162873-0.334907-0.342033-0.508977-0.506941-0.35323-0.333889-0.696281-0.674903-1.031187-1.026098-0.320656-0.335925-0.631131-0.675921-0.932446-1.02508-0.285027-0.329817-0.559875-0.66676-0.829632-1.010828-0.304368-0.388858-0.601611-0.780771-0.883584-1.182863-0.235147-0.334907-0.460115-0.677957-0.681011-1.023044-0.26874-0.421433-0.530354-0.843884-0.775681-1.276514-0.206645-0.364428-0.39802-0.735981-0.588377-1.110588-0.216824-0.426523-0.427541-0.854063-0.62197-1.289748-0.182214-0.4082-0.347122-0.824543-0.509995-1.241904-0.161855-0.419397-0.320656-0.838794-0.463169-1.264299-0.148621-0.443828-0.279937-0.893764-0.406164-1.346753-0.117065-0.424487-0.230058-0.847956-0.327781-1.274478-0.103831-0.454007-0.191375-0.911069-0.272812-1.372202-0.080418-0.455025-0.150657-0.911069-0.208681-1.369148-0.05497-0.434666-0.098742-0.869333-0.133352-1.310107-0.040718-0.506941-0.064131-1.011846-0.077365-1.520823-0.00509-0.230058-0.033592-0.45299-0.033592-0.684065 0-0.186286 0.023413-0.365445 0.028503-0.551731 0.009162-0.519157 0.0397-1.037295 0.078382-1.556452 0.030539-0.416343 0.063113-0.831668 0.111975-1.242922 0.058023-0.485564 0.137424-0.968074 0.221914-1.450584 0.074311-0.43263 0.147603-0.863225 0.241255-1.287712 0.101795-0.455025 0.224968-0.904961 0.349158-1.355915 0.119101-0.43263 0.235147-0.865261 0.375625-1.289748 0.142514-0.436702 0.309458-0.867297 0.474367-1.297891 0.161855-0.420415 0.320656-0.84083 0.501851-1.252083 0.18425-0.419397 0.391912-0.828615 0.597539-1.239868 0.204609-0.4082 0.407182-0.815381 0.631131-1.211365 0.21886-0.38784 0.458079-0.766519 0.697298-1.146216 0.254488-0.405146 0.511013-0.80622 0.784843-1.198132 0.245327-0.34814 0.505923-0.687119 0.768555-1.027116 0.310476-0.402092 0.62706-0.798076 0.958913-1.180827 0.123172-0.144549 0.22904-0.298261 0.356284-0.440774 0.159819-0.177124 0.335925-0.328799 0.497779-0.500833 0.339997-0.359338 0.686101-0.709514 1.044421-1.050529 0.330835-0.314548 0.664724-0.618916 1.006756-0.914123 0.336943-0.290117 0.679993-0.571072 1.031187-0.84592 0.381733-0.300296 0.767537-0.591431 1.162503-0.869333 0.34305-0.241255 0.693227-0.469277 1.046457-0.696281 0.413289-0.26365 0.828615-0.520174 1.253101-0.76143 0.371553-0.211734 0.752268-0.407182 1.135019-0.601611 0.418379-0.211734 0.836758-0.419397 1.263281-0.608736 0.416343-0.187304 0.842866-0.356284 1.270407-0.52221 0.409218-0.158801 0.819453-0.31353 1.234778-0.451972 0.454007-0.151675 0.914123-0.286045 1.377292-0.414307 0.413289-0.115029 0.825561-0.224968 1.241904-0.31862 0.464187-0.106885 0.933464-0.197483 1.405794-0.279937 0.44281-0.078382 0.886638-0.147603 1.332502-0.204609 0.445864-0.055987 0.893764-0.100777 1.344717-0.135388 0.494726-0.0397 0.987415-0.063113 1.483159-0.075329 0.236165-0.006108 0.466223-0.035628 0.704424-0.035628l100.987143 0c-0.117065-1.481123-0.194429-2.973444-0.194429-4.485105l0-448.245858 0-0.001018c0-30.945801 25.086458-56.031241 56.031241-56.031241l196.124104 0c0.018323 0 0.036646 0.001018 0.053952 0.001018 30.920352 0.029521 55.97729 25.101727 55.97729 56.030223l0 232.846794 0 23.870003c0 15.472901 12.542211 28.015112 28.015112 28.015112l84.046353 0c15.471883 0 28.015112-12.542211 28.015112-28.015112l0-23.870003 0-232.846794c0-30.928496 25.056937-56.000703 55.975254-56.030223 0.020359 0 0.037664-0.001018 0.055987-0.001018l196.125122 0c30.943765 0 56.030223 25.08544 56.030223 56.031241l0 0.001018 0 448.245858c0 1.608367-0.083472 3.195358-0.215806 4.769114l97.039517 0c8.9356-1.270407 18.321136 1.785491 24.806521 9.002785 4.182773 4.653068 6.488439 10.324089 7.025918 16.11014 0.003054 0.033592 0.006108 0.067185 0.009162 0.100777C1016.382264 418.858114 1016.421964 419.6114 1016.428071 420.365704zM859.581722 448.923385c-6.432451 0-12.340656-2.191655-17.07007-5.836948-6.564785-5.060249-10.826959-12.947357-10.928754-21.853436-0.002036-0.108921-0.016287-0.214788-0.016287-0.324727s0.014251-0.215806 0.016287-0.324727l0-451.256965c0-15.472901-12.542211-28.015112-28.015112-28.015112L663.474922-58.688531c-15.25404 0-27.633379 12.196107-27.982537 27.366675L635.492385 224.673212c0 0.435684-0.022395 0.865261-0.032575 1.297891-0.692209 30.34419-25.487532 54.73335-55.998667 54.73335L439.384568 280.704453c-30.511135 0-55.306458-24.38916-55.998667-54.73335-0.01018-0.433648-0.032575-0.863225-0.032575-1.297891l0-255.996086c-0.34814-15.16955-12.729515-27.366675-27.982537-27.366675L215.276909-58.689549c-15.472901 0-28.015112 12.542211-28.015112 28.015112L187.261797 420.339237c0.001018 0.095688 0.014251 0.189339 0.014251 0.285027 0 0.095688-0.013233 0.189339-0.014251 0.284009-0.090598 9.058773-4.489177 17.068034-11.236176 22.123194-4.677499 3.505834-10.468639 5.607909-16.764684 5.607909l-55.781842 0 405.94478 364.905965L915.05207 448.923385 859.581722 448.923385z"  horiz-adv-x="1032" />

    
    <glyph glyph-name="Shape" unicode="&#58915;" d="M857.237-127.678h-691.23c-63.406 0-107.793 50.853-107.793 108.085v807.537c0 63.581 44.387 108.085 107.793 108.085h684.881c57.086 0 107.822-44.504 107.822-101.736l6.32-813.886c0-63.581-50.736-108.085-107.793-108.085zM857.237 851.525h-691.23c-31.717 0-57.086-25.427-63.406-50.853 38.038-190.773 209.265-330.663 405.861-330.663 196.566 0 367.794 139.89 405.831 330.663 0 25.427-25.339 50.853-57.056 50.853zM914.294 660.782c-82.424-146.24-234.633-241.626-405.831-241.626-171.227 0-323.436 101.736-399.541 241.626v-680.375c0-31.776 25.368-57.232 57.086-57.232h684.881c38.067 0 63.406 25.456 63.406 57.232v680.375zM632.991 195.173v-33.297h-99.629v-33.327h91.319v-33.297h-91.319v-91.553h-49.829v91.553h-91.319v33.297h91.319v33.327h-91.319v33.297h74.729l-99.629 149.839h58.11l83.039-141.529 83.010 141.529h58.139l-91.349-149.839h74.729z"  horiz-adv-x="1024" />

    
    <glyph glyph-name="leimupinleifenleileibie--" unicode="&#58891;" d="M352.903955 896h-231.41243C52.067797 896 0 843.932203 0 780.293785v-231.412429c0-63.638418 52.067797-115.706215 115.706215-115.706215h231.412429c63.638418 0 115.706215 52.067797 115.706215 115.706215V780.293785c5.785311 63.638418-46.282486 115.706215-109.920904 115.706215z m46.282486-341.333333c0-34.711864-28.926554-57.853107-57.853108-57.853108H133.062147c-34.711864 0-57.853107 28.926554-57.853107 57.853108V768.723164c0 34.711864 28.926554 57.853107 57.853107 57.853107h208.271186c34.711864 0 57.853107-28.926554 57.853108-57.853107v-214.056497zM902.508475 896h-231.41243c-63.638418 0-115.706215-52.067797-115.706214-115.706215v-231.412429c0-63.638418 52.067797-115.706215 115.706214-115.706215h231.41243c63.638418 0 115.706215 52.067797 115.706214 115.706215V780.293785c5.785311 63.638418-52.067797 115.706215-115.706214 115.706215z m52.067796-341.333333c0-34.711864-28.926554-57.853107-57.853107-57.853108h-208.271187c-34.711864 0-57.853107 28.926554-57.853107 57.853108V768.723164c0 34.711864 28.926554 57.853107 57.853107 57.853107h208.271187c34.711864 0 57.853107-28.926554 57.853107-57.853107v-214.056497zM352.903955 340.61016900000004h-231.41243c-63.638418 0-115.706215-52.067797-115.706214-115.706214v-231.41243c0-63.638418 52.067797-115.706215 115.706214-115.706214h231.41243c63.638418 0 115.706215 52.067797 115.706214 115.706214v231.41243c0 63.638418-52.067797 115.706215-115.706214 115.706214z m46.282486-341.333333c0-34.711864-28.926554-57.853107-57.853108-57.853107H133.062147c-34.711864 0-57.853107 28.926554-57.853107 57.853107v208.271187c0 34.711864 28.926554 57.853107 57.853107 57.853107h208.271186c34.711864 0 57.853107-28.926554 57.853108-57.853107v-208.271187zM902.508475 340.61016900000004h-231.41243c-63.638418 0-115.706215-52.067797-115.706214-115.706214v-231.41243c0-63.638418 52.067797-115.706215 115.706214-115.706214h231.41243c63.638418 0 115.706215 52.067797 115.706214 115.706214v231.41243c5.785311 63.638418-52.067797 115.706215-115.706214 115.706214z m52.067796-341.333333c0-34.711864-28.926554-57.853107-57.853107-57.853107h-208.271187c-34.711864 0-57.853107 28.926554-57.853107 57.853107v208.271187c0 34.711864 28.926554 57.853107 57.853107 57.853107h208.271187c34.711864 0 57.853107-28.926554 57.853107-57.853107v-208.271187z"  horiz-adv-x="1024" />

    
    <glyph glyph-name="arr-right" unicode="&#58626;" d="M816.70282667 411.58570667L408.21632 851.60842667H219.74974315l408.48544-440.02272-408.48544-408.46976h188.46767942L816.70282667 411.58570667zM816.70282667 411.58570667"  horiz-adv-x="1000" />

    
    <glyph glyph-name="yaoqingfanli" unicode="&#59260;" d="M512.1-21.8c-89.7 0-178.4 30.6-249.8 86.3-35.6 27.8-66.1 60.9-90.6 98.5-25.3 38.9-43.6 81.7-54.4 127.1-24.8 104.7-7.8 212.8 47.7 304.4s143.5 156.8 247.7 183.3c32.9 8.4 65.9 12 110.4 12h9.1c58-1.2 122-20 180.2-52.9 6.3-3.5 9.1-9 7.9-15.3-1.2-6.6-5.7-11-12.4-12-0.6-0.1-1.1-0.1-1.7-0.1-2.6 0-5.5 1-9.2 3.1-34.6 19.6-72.2 33.6-111.9 41.6-24 4.9-48.6 7.3-73.1 7.3-145.2 0-278.9-84.7-340.7-215.8-29.4-62.4-41-129.1-34.5-198.2C152.4 182 277.7 44.8 441.7 13.7c23.4-4.4 47.2-6.7 70.8-6.7 177.4 0 328.5 121 367.3 294.4 20.4 91.1 8 179.6-37 263.1l-0.4 0.7c-3.8 7-5.9 11.2-4.9 15.7 1.4 6.3 6.1 10.7 12.6 11.7 0.6 0.1 1.2 0.1 1.8 0.1 4.9 0 9.7-3 12.5-7.8 14.9-26 26.9-53.7 35.6-82.2 16.8-55 21.8-111.5 14.9-168-6.7-54.4-24-106.1-51.6-153.8-27.5-47.7-63.7-88.5-107.5-121.5-45.4-34.2-96.9-58.1-152.9-71-29.8-6.8-60.4-10.2-90.8-10.2z m0 0M512.1-26.9c-90.8 0-180.7 31-253 87.4-36.1 28.1-66.9 61.7-91.7 99.8-25.7 39.4-44.2 82.7-55.1 128.8-25.1 106-7.9 215.4 48.3 308.3 56.2 92.8 145.3 158.7 250.8 185.6 33.3 8.5 66.7 12.1 111.6 12.1h9.2c58.9-1.2 123.7-20.2 182.6-53.5 8.2-4.6 12-12.2 10.4-20.6-1.6-8.7-7.8-14.7-16.6-16.1-0.9-0.1-1.7-0.2-2.5-0.2-3.5 0-7.3 1.2-11.8 3.7-34.1 19.3-71.2 33.2-110.3 41.1-23.7 4.8-48 7.2-72.1 7.2-143.3 0-275.2-83.5-336-212.8-29-61.6-40.4-127.3-34-195.5 15.4-163.2 139-298.6 300.8-329.3 23.1-4.4 46.6-6.6 69.9-6.6 175 0 324 119.4 362.4 290.4 20.2 89.9 7.9 177.2-36.6 259.6l-0.4 0.7c-3.8 7-6.8 12.6-5.4 19.2 1.8 8.4 8.2 14.4 16.8 15.7 0.8 0.1 1.7 0.2 2.6 0.2 6.8 0 13.2-4 16.9-10.4 15.1-26.3 27.2-54.3 36-83.3 17-55.7 22.1-112.9 15.1-170.1-6.7-55.1-24.3-107.5-52.2-155.8-27.9-48.3-64.5-89.6-108.8-123-46-34.6-98.1-58.8-154.8-71.9-30.4-7.2-61.3-10.7-92.1-10.7zM523 784.7c-44 0-76.6-3.5-109.1-11.8-102.9-26.2-189.8-90.5-244.6-181-54.8-90.5-71.5-197.3-47.1-300.6 10.6-44.9 28.7-87.1 53.7-125.5 24.2-37.1 54.3-69.9 89.5-97.3 70.5-54.9 158.1-85.2 246.7-85.2 30 0 60.2 3.4 89.7 10.2 55.3 12.8 106.1 36.3 151 70.1 43.2 32.5 78.9 72.9 106.1 119.9 27.2 47.1 44.3 98.2 50.9 151.9 6.8 55.7 1.9 111.5-14.7 165.9-8.6 28.2-20.4 55.5-35.1 81.2-2.1 3.6-5.7 5.7-9.1 5.2-4.4-0.7-7.4-3.5-8.4-7.8-0.6-2.6 0.9-5.7 4.4-12.2l0.4-0.7c45.6-84.6 58.2-174.3 37.5-266.6C845.4 124.7 692.3 2 512.5 2c-23.9 0-48.1 2.3-71.8 6.8-166.2 31.5-293.2 170.6-309 338.3-6.6 70 5.2 137.6 34.9 200.8 62.6 132.8 198.1 218.7 345.3 218.7 24.9 0 49.8-2.5 74.2-7.4 40.2-8.1 78.3-22.3 113.4-42.2 2.8-1.6 5-2.4 6.7-2.4 0.3 0 0.6 0 0.9 0.1 4.5 0.7 7.4 3.5 8.2 7.9 0.8 4.1-1.1 7.4-5.4 9.9-57.5 32.5-120.6 51-177.8 52.2H523zM528.6 525.8c2.3 2.9 4.1 4.8 5.2 5.7 4.2 8.6 2.9 14.7-4 18.5-8 2.9-14.6 0-19.7-8.6-2.4-2.9-5.4-7.1-9.2-12.8l-5.6-8.6h-19.7c-14.1 0-22.9-7.6-26.3-22.8l-9.6-58.5c-3-18.1 2.6-27.1 16.7-27.1h24c-2.7-4.8-3-9.5-0.9-14.3 0.8-0.9 1.1-1.9 0.9-2.9-0.3-1.9-0.1-3.3 0.7-4.3H436c-6.6 0-10.5-3.8-11.7-11.4-1.3-7.6 1.4-11.4 8-11.4h28.2c-4.7-28.5-19.8-54.7-45.3-78.4-6.6-5.7-7.6-11.9-3.1-18.5 5.6-5.7 11.7-5.7 18.3 0 17.2 13.3 31.5 31.4 42.8 54.2h40.9c6.4-0.9 8.5-5.2 6.3-12.8-5.2-25.7-16.5-34.7-34.1-27.1-8.1 1.9-14.8-1.4-20-10-3.3-8.6-0.9-14.3 7-17.1 40.6-10.5 64.9 9 73.1 58.5 5.5 21.9 0.2 32.3-16 31.4h-47.9c1.3 1.9 2.3 5.2 3.1 10 1.7 4.8 2.7 8.1 3.1 10h63.4c6.6 0 11 3.8 13.2 11.4 0.3 7.6-2.8 11.4-9.4 11.4h-45.1c-1.4 8.6-3.5 15.7-6.3 21.4h36.6c14.3 0.9 22.9 8.1 26.1 21.4l9.9 59.9c1.9 17.1-3.2 26.1-15.3 27.1h-36.6c0.8 0.9 2 2.8 3.4 5.7z m105.5-10c1.9 5.7 3.1 10.5 3.8 14.3 2.7 10.5 0 17.1-8 20-8.5 0-14.5-5.2-18.1-15.7-6.4-33.3-20.2-65.6-41.3-97-5.3-9.5-4.5-16.2 2.3-20 8-2.9 15 0 21.1 8.6 0.2 1 1.4 2.9 3.8 5.7 11.7 20 20.7 37.1 26.8 51.3h33.8c-8.1-43.7-18.8-79.9-31.9-108.4-0.6 1.9-2.1 4.3-4.5 7.1-5.3 13.3-10.3 23.3-14.8 30-5.2 8.6-11.9 10.5-20.2 5.7-8.6-6.7-10.8-14.3-6.6-22.8 8.5-11.4 17.8-29 28-52.8-13.8-20.9-34.2-42.3-61.3-64.2-8.8-7.6-10.9-14.7-6.3-21.4 6-3.8 13.5-3.3 22.8 1.4 22.9 19 41.4 37.6 55.7 55.6 4.7-17.1 9-33.8 12.9-49.9 2.3-8.6 8.4-11.9 18.1-10 8.1 3.8 11.6 10.5 10.3 20-1.3 3.8-1.5 5.2-0.7 4.3-7.4 29.5-14 51.8-20 67 18.5 32.3 33.1 78.4 43.9 138.4h4.2c7.5 0 12.5 4.8 15 14.3 0.6 9.5-2.8 14.3-10.3 14.3h-59.2l0.7 4.2z m-149.6-18.5h63.4c4.7 0 6.6-2.9 5.6-8.6l-1.9-11.4h-83.2l1.6 10c1.2 6.6 6 10 14.5 10z m61-57.1c0.2-4.8-2.6-7.1-8.2-7.1h-67.6c-5.6 0-8 2.9-7 8.6l2.1 12.8H548l-2.5-14.3z m-158.3 91.3c-7.5-5.7-9.1-12.4-4.7-20 11.3-17.1 19.7-31.9 25.1-44.2 4.4-7.6 10.6-9.5 18.8-5.7 8.5 5.7 11 12.4 7.5 20-7.8 20.9-16.4 37.1-25.8 48.5-5.5 6.6-12.4 7.1-20.9 1.4zM344 397.4c-0.5-8.6 3.4-13.3 11.7-14.3h22.5c8.6 0.9 11.7-2.9 9.4-11.4l-13.2-79.9c-2-18.1-16.4-33.8-43-47.1-9.6-6.7-12.6-13.8-9.2-21.4 4.4-7.6 11.7-8.6 22.1-2.9 17.7 10.5 31.2 21.4 40.6 32.8C398.8 229.4 443 218 517.4 219h126.8c8.5 0 13.9 4.3 16.2 12.8 0.5 8.6-3.5 12.8-12 12.8H514.8c-43.2 0-71.9 2.9-86 8.6-14.9 6.7-23.3 20.9-25.4 42.8l14.1 85.6c5.3 20.9-2 30.4-22.1 28.5h-33.8c-8.4 0.2-14.3-4.1-17.6-12.7z m0 0"  horiz-adv-x="1024" />

    
    <glyph glyph-name="yijianfankui" unicode="&#59148;" d="M875.1 598.3c-4.6 0-9.2 1.8-12.8 5.3L736.1 729.9c-7 7-7 18.5 0 25.5s18.5 7 25.5 0l126.3-126.3c7-7 7-18.5 0-25.5-3.5-3.5-8.1-5.3-12.8-5.3z m-613.3-487c-4.8 0-9.3 1.9-12.7 5.2-3.5 3.4-5.4 8.2-5.3 13.1 0.1 6.6 3.2 163.5 72.2 232.5L735.9 782c50 50 117.2 61.2 153 25.4l51-51c35.8-35.8 24.6-103-25.5-153.1L494.5 183.5c-68-68-225.7-72.1-232.4-72.2h-0.3z m573.3 680.9c-22.5 0-50.8-12.9-73.7-35.8L341.5 336.6c-46-46-57.7-146-60.7-188.2 42.4 3.2 143.1 15.4 188.2 60.6l419.9 419.9c34.6 34.6 46.2 81.3 25.5 102.1l-51 51c-7 6.9-16.9 10.2-28.3 10.2z m4-825.3H189.6c-49.7 0-90.2 40.5-90.2 90.2V706.6c0 49.7 40.5 90.2 90.2 90.2h432.8c10 0 18-8.1 18-18s-8.1-18-18-18H189.6c-29.8 0-54.1-24.3-54.1-54.1v-649.4c0-29.8 24.3-54.1 54.1-54.1H839c29.8 0 54.1 24.3 54.1 54.1V452.6c0 10 8.1 18 18 18s18-8.1 18-18v-395.5c0.2-49.7-40.3-90.2-90-90.2z m-442 279.7c-2.3 0-4.6 0.9-6.4 2.6-3.5 3.5-3.5 9.2 0 12.8l18 18c3.5 3.5 9.2 3.5 12.8 0 3.5-3.5 3.5-9.2 0-12.8l-18-18c-1.8-1.8-4.1-2.6-6.4-2.6z m88.5 89.6c-2.2 0-4.4 0.8-6.2 2.4-3.6 3.4-3.8 9.1-0.4 12.8l254.3 271.2c3.4 3.7 9.1 3.8 12.8 0.4 3.6-3.4 3.8-9.1 0.4-12.8L492.2 339c-1.8-1.9-4.2-2.8-6.6-2.8z"  horiz-adv-x="1024" />

    
    <glyph glyph-name="huiyuan" unicode="&#58889;" d="M1024 822.044444h-364.088889l-364.088889-426.666666v426.666666h-295.822222v-73.955555h73.955556v-807.822222h221.866666l728.177778 881.777777z"  horiz-adv-x="1024" />

    
    <glyph glyph-name="zhuantibluecopy" unicode="&#58961;" d="M857.6 678.4V691.2c0-7.0656 5.7344-12.8 12.8-12.8h-12.8z m0 0h-66.6624V742.4H870.4a51.2 51.2 0 0 0 51.2-51.2v-716.8a51.2 51.2 0 0 0-51.2-51.2H256a51.2 51.2 0 0 0-51.2 51.2v80.896h64v-68.096h588.8V678.4z m0-691.2H870.4a12.8 12.8 0 0 1-12.8-12.8v12.8z m-588.8 0V-25.6a12.8 12.8 0 0 1-12.8 12.8h12.8z m0 0V-25.6a12.8 12.8 0 0 1-12.8 12.8h12.8z m0 0h588.8V678.4h-66.6624V742.4H870.4a51.2 51.2 0 0 0 51.2-51.2v-716.8a51.2 51.2 0 0 0-51.2-51.2H256a51.2 51.2 0 0 0-51.2 51.2v80.896h64v-68.096z m588.8 0H870.4a12.8 12.8 0 0 1-12.8-12.8v12.8z m0 691.2V691.2c0-7.0656 5.7344-12.8 12.8-12.8h-12.8zM436.6848 780.8L166.4 508.3648v-418.7648h588.8V780.8H436.6848zM410.0608 844.8H768a51.2 51.2 0 0 0 51.2-51.2v-716.8a51.2 51.2 0 0 0-51.2-51.2H153.6a51.2 51.2 0 0 0-51.2 51.2V534.7328L410.0096 844.8zM428.8 823.6032h64V588.8c0-45.9264-37.2736-83.2-83.2-83.2H144.896v64H409.6A19.2 19.2 0 0 1 428.8 588.8V823.6032z"  horiz-adv-x="1024" />

    
    <glyph glyph-name="rili" unicode="&#58958;" d="M505.6-32h-400c-35.2 0-64 9.6-86.4 32-9.6 9.6-12.8 22.4-12.8 35.2v608c0 35.2 38.4 64 83.2 67.2h83.2c12.8 0 19.2 3.2 19.2 12.8v25.6c6.4 25.6 25.6 38.4 57.6 38.4 25.6 0 44.8-16 48-41.6v-3.2c3.2-35.2 3.2-35.2 44.8-35.2h348.8c16 0 22.4 3.2 22.4 16v22.4c3.2 25.6 25.6 38.4 54.4 38.4 28.8 0 48-16 51.2-38.4 0-12.8-6.4-28.8 3.2-35.2 12.8-6.4 32-3.2 48-3.2h48c48-3.2 86.4-32 86.4-70.4v-601.6c0-41.6-41.6-70.4-99.2-73.6-128 6.4-265.6 6.4-400 6.4z m3.2 547.2h-400c-16 0-22.4-3.2-22.4-16v-441.6c0-19.2 9.6-22.4 28.8-22.4h787.2c28.8 0 28.8 0 28.8 22.4v438.4c0 16-3.2 19.2-22.4 19.2h-400zM259.2 131.2h-51.2c-22.4 0-32 9.6-35.2 25.6v54.4c0 16 12.8 25.6 32 25.6h108.8c22.4 0 32-9.6 32-28.8v-51.2c0-16-9.6-25.6-32-25.6H259.2zM508.8 131.2h-51.2c-22.4 0-35.2 9.6-35.2 25.6v51.2c0 19.2 9.6 25.6 32 28.8h105.6c19.2 0 32-9.6 32-25.6v-54.4c0-16-12.8-25.6-32-25.6h-51.2zM758.4 236.8h54.4c19.2 0 32-9.6 28.8-25.6v-57.6c0-16-12.8-25.6-32-25.6h-108.8c-19.2 0-32 9.6-32 25.6v54.4c0 16 12.8 25.6 32 25.6 19.2 6.4 38.4 3.2 57.6 3.2zM508.8 313.6h-54.4c-22.4 0-32 6.4-32 25.6v57.6c0 16 9.6 22.4 28.8 22.4h112c19.2 0 28.8-9.6 32-25.6v-54.4c0-16-9.6-25.6-32-25.6h-54.4zM259.2 419.2h54.4c19.2 0 32-9.6 32-22.4v-57.6c0-16-9.6-22.4-28.8-22.4h-112c-19.2 0-28.8 6.4-28.8 22.4v60.8c0 16 12.8 22.4 32 22.4 16-3.2 32-3.2 51.2-3.2zM755.2 313.6h-54.4c-19.2 0-32 9.6-32 25.6v57.6c0 16 9.6 22.4 28.8 22.4h112c19.2 0 28.8-9.6 28.8-22.4v-57.6c0-12.8-9.6-22.4-28.8-22.4-16-3.2-35.2-3.2-54.4-3.2z"  horiz-adv-x="1024" />

    
    <glyph glyph-name="zhuanti" unicode="&#58645;" d="M544.025 600.79L149.204 741.818c-6.653 2.377-13.972-1.09-16.349-7.743-2.376-6.652 1.09-13.972 7.744-16.348L526.93 579.73v-620.219L131.373 129.027V515.42c0 7.065-5.728 12.791-12.792 12.791-7.065 0-12.791-5.726-12.791-12.79v-394.83c0-5.117 3.05-9.741 7.752-11.757l421.141-180.477a12.789 12.789 0 0 1 17.83 11.757v648.63a12.792 12.792 0 0 1-8.488 12.045zM718.756 682.626L352.136 809.528c-6.674 2.308-13.961-1.228-16.272-7.904-2.31-6.677 1.228-13.961 7.904-16.272L701.782 661.43v-625.435c0-7.064 5.727-12.791 12.791-12.791s12.792 5.727 12.792 12.791V670.54a12.795 12.795 0 0 1-8.609 12.087zM878.526 758.78L549.515 871.59c-6.684 2.29-13.958-1.269-16.25-7.951-2.29-6.682 1.269-13.957 7.95-16.248l320.371-109.849v-616.951c0-7.064 5.728-12.792 12.792-12.792s12.791 5.728 12.791 12.792V746.679a12.794 12.794 0 0 1-8.643 12.1z"  horiz-adv-x="1024" />

    
    <glyph glyph-name="wodeshoucang" unicode="&#59111;" d="M574.836364 430.545455c42.402909 0 76.8-33.978182 76.8-75.869091 0-77.265455-124.555636-203.403636-139.636364-203.403637-15.639273 0-139.636364 126.045091-139.636364 203.403637 0 41.890909 34.397091 75.869091 76.8 75.869091 25.972364 0 48.919273-12.753455 62.836364-32.256A76.986182 76.986182 0 0 0 574.836364 430.545455zM139.636364 709.818182v-651.636364h744.727272V527.825455h-362.682181a116.363636 116.363636 0 0 0-100.724364 58.181818L349.323636 709.818182H139.636364z m0 93.090909h209.687272a93.090909 93.090909 0 0 0 80.570182-46.498909l71.633455-123.810909a23.272727 23.272727 0 0 1 20.154182-11.636364H884.363636a93.090909 93.090909 0 0 0 93.090909-93.090909V58.181818a93.090909 93.090909 0 0 0-93.090909-93.090909H139.636364a93.090909 93.090909 0 0 0-93.090909 93.090909V709.818182a93.090909 93.090909 0 0 0 93.090909 93.090909z"  horiz-adv-x="1024" />

    
    <glyph glyph-name="icon-test" unicode="&#58939;" d="M384 128a64 64 0 1 1 0.032-128.032A64 64 0 0 1 384 128M704 128a64 64 0 1 1 0.032-128.032A64 64 0 0 1 704 128M312.672 384l-51.424 192h560.96l-51.456-192H312.672z m583.36 224a32 32 0 0 1-32 32H244.064L209.792 768H96.032v-64h64.64l145.728-544H800v64H355.52l-25.696 96h490.048l12.16 45.376 64 238.88-0.768 0.192C895.424 605.664 896 606.72 896 608zM448 448h192v64h-192z"  horiz-adv-x="1024" />

    
    <glyph glyph-name="youxuangou" unicode="&#58881;" d="M764.16 455.68c-48.64 0-89.6 40.96-89.6 90.88s39.68 90.88 89.6 90.88c48.64 0 89.6-40.96 89.6-90.88s-40.96-90.88-89.6-90.88z m0 130.56c-20.48 0-38.4-17.92-38.4-39.68s16.64-39.68 38.4-39.68 38.4 17.92 38.4 39.68-17.92 39.68-38.4 39.68zM912.64 51.2h-72.96c-14.08 0-25.6 10.24-25.6 24.32-2.56 74.24-32 120.32-49.92 120.32s-47.36-47.36-49.92-120.32c0-14.08-11.52-24.32-25.6-24.32h-72.96c-6.4 0-14.08 2.56-17.92 7.68-5.12 5.12-7.68 11.52-7.68 19.2 2.56 88.32 26.88 184.32 62.72 249.6-34.56 19.2-65.28 46.08-88.32 80.64-7.68 11.52-5.12 28.16 6.4 35.84 11.52 7.68 28.16 5.12 35.84-6.4 23.04-34.56 55.04-60.16 92.16-74.24 7.68-2.56 12.8-8.96 15.36-16.64 2.56-7.68 1.28-15.36-3.84-21.76-34.56-51.2-61.44-139.52-69.12-221.44h23.04c8.96 85.76 49.92 145.92 99.84 145.92s89.6-60.16 99.84-145.92h23.04c-6.4 83.2-33.28 171.52-69.12 221.44-3.84 6.4-5.12 14.08-3.84 21.76 2.56 7.68 7.68 14.08 15.36 16.64 57.6 21.76 102.4 71.68 120.32 133.12h-24.32c-26.88-60.16-89.6-101.12-161.28-101.12-60.16 0-115.2 28.16-147.2 76.8-7.68 11.52-5.12 28.16 7.68 35.84 11.52 7.68 28.16 5.12 35.84-7.68 23.04-33.28 61.44-53.76 104.96-53.76 55.04 0 103.68 34.56 119.04 83.2 3.84 10.24 12.8 17.92 24.32 17.92h74.24c7.68 0 14.08-3.84 19.2-8.96 5.12-5.12 6.4-12.8 6.4-20.48-12.8-81.92-61.44-152.32-130.56-189.44 35.84-65.28 61.44-162.56 62.72-249.6 0-6.4-2.56-14.08-7.68-19.2-6.4-6.4-14.08-8.96-20.48-8.96zM376.32 563.2c-64 0-115.2 52.48-115.2 117.76s51.2 117.76 115.2 117.76 115.2-52.48 115.2-117.76-51.2-117.76-115.2-117.76z m0 184.32c-35.84 0-64-29.44-64-66.56s28.16-66.56 64-66.56 64 29.44 64 66.56-28.16 66.56-64 66.56zM600.32-35.84h-110.08c-14.08 0-25.6 10.24-25.6 24.32-5.12 115.2-48.64 193.28-87.04 193.28s-83.2-78.08-87.04-193.28c0-14.08-11.52-24.32-25.6-24.32H153.6c-6.4 0-14.08 2.56-17.92 7.68-5.12 5.12-7.68 11.52-7.68 19.2 3.84 135.68 43.52 284.16 99.84 380.16C121.6 422.4 46.08 527.36 26.88 651.52c-1.28 7.68 1.28 15.36 6.4 20.48 5.12 5.12 11.52 8.96 19.2 8.96h110.08c11.52 0 21.76-7.68 24.32-17.92 23.04-79.36 101.12-134.4 189.44-134.4s166.4 55.04 189.44 134.4c3.84 10.24 12.8 17.92 24.32 17.92h110.08c7.68 0 14.08-3.84 19.2-8.96 5.12-5.12 6.4-12.8 6.4-20.48-19.2-124.16-94.72-229.12-200.96-281.6 56.32-97.28 96-244.48 99.84-380.16 0-6.4-2.56-14.08-7.68-19.2-3.84-3.84-10.24-6.4-16.64-6.4z m-85.76 51.2h58.88c-8.96 130.56-49.92 272.64-106.24 353.28-3.84 6.4-5.12 14.08-3.84 21.76 2.56 7.68 7.68 14.08 15.36 16.64 94.72 35.84 166.4 120.32 192 224h-61.44c-35.84-90.88-129.28-152.32-232.96-152.32S179.2 540.16 143.36 631.04H83.2c25.6-103.68 96-186.88 192-224 7.68-2.56 12.8-8.96 15.36-16.64 2.56-7.68 1.28-15.36-3.84-21.76-55.04-80.64-97.28-222.72-106.24-353.28h58.88c11.52 128 66.56 217.6 136.96 217.6 70.4 0 126.72-90.88 138.24-217.6z"  horiz-adv-x="1024" />

    
    <glyph glyph-name="dizhiguanli" unicode="&#58888;" d="M512 110.08c-42.24 0-115.2 111.36-144.64 160-29.44 48.64-99.84 170.24-99.84 250.88 0 134.4 110.08 244.48 244.48 244.48s244.48-110.08 244.48-244.48c0-81.92-69.12-202.24-99.84-250.88-29.44-48.64-102.4-160-144.64-160z m0 604.16c-106.24 0-193.28-87.04-193.28-193.28 0-102.4 148.48-325.12 193.28-357.12 43.52 32 193.28 254.72 193.28 357.12 0 106.24-87.04 193.28-193.28 193.28zM512 392.96c-70.4 0-128 57.6-128 128s57.6 128 128 128 128-57.6 128-128-57.6-128-128-128z m0 204.8c-42.24 0-76.8-34.56-76.8-76.8s34.56-76.8 76.8-76.8 76.8 34.56 76.8 76.8-34.56 76.8-76.8 76.8zM889.6 2.56h-755.2L243.2 313.6h70.4v-51.2h-33.28l-74.24-208.64h611.84l-74.24 208.64h-33.28v51.2H780.8z"  horiz-adv-x="1024" />

    
    <glyph glyph-name="kefuzixun" unicode="&#58896;" d="M922.162684 559.36026C875.672719 752.128111 705.459851 896 501.350008 896 291.63517 896 117.504304 744.166117 78.900334 543.309272a80.716938 80.716938 0 0 1-66.099949-79.615938v-159.666877c0-44.749965 35.890972-81.023937 80.179938-81.023938 25.009981 0 47.051964 11.775991 61.745953 29.925977a372.633713 372.633713 0 0 1 198.989846-209.305838c0.23 0.487 1.944998 3.839997 4.017997 6.527995 1.459999 1.843999 3.071998 3.379997 4.429997 3.379997 1.432999 0 2.763998-0.512 3.889997-1.331999-21.144984 15.743988-97.535925 96.665925-114.072912 209.587838-7.269994 49.714962 29.951977 98.482924 73.317943 106.571918 69.631946 12.95399 138.854893 27.724979 208.434839 40.447969 44.262966 8.063994 74.495943 32.332975 92.979929 72.729944 4.351997 9.471993 10.597992 28.543978 13.464989 56.089956 0.767999 4.095997 4.095997 7.269994 8.422994 7.269995a8.703993 8.703993 0 0 0 6.911994-3.583997c29.362977-38.65597 83.762935-126.821902 91.56993-219.826831 8.959993-106.316918 3.968997-179.122862-77.413941-253.619804a6.834995 6.834995 0 0 1-2.123998-4.862996c0-2.303998 1.227999-4.249997 2.994998-5.427996 2.559998-1.023999 3.071998-1.227999 3.634997-1.227999 2.687998 0.920999 3.788997 1.637999 4.914996 2.226998a372.121713 372.121713 0 0 1 174.591865 212.120836 82.303937 82.303937 0 0 1 51.78896-34.559973c-34.457973-156.696879-174.207866-254.769803-347.339732-269.643792a70.859945 70.859945 0 0 1-65.919949 44.031966c-39.16897 0-70.937945-31.052976-70.937945-69.273946 0-38.24597 31.743976-69.247947 70.936945-69.247947a70.527946 70.527946 0 0 1 67.225948 48.179963c200.421845 16.279987 361.061721 135.422896 394.597696 320.510753a81.765937 81.765937 0 0 1 50.431961 75.366941V477.594323c0 45.131965-36.863972 81.765937-82.303936 81.765937z m-73.932943-46.412964c-52.27496 141.593891-187.749855 242.764813-347.058733 242.764812-158.668878 0-293.631773-100.274923-346.367732-240.946814-2.636998 3.199998-5.708996 5.938995-8.754994 8.729993C175.923259 694.911155 323.456145 825.266055 501.376008 825.266055c177.023863 0 324.09575-129.0749 354.943726-299.28977-3.071998-4.094997-5.887995-8.369994-8.089993-13.00399z m-494.335619-469.349638l-0.05 0.025c-0.206-0.46-0.206-0.512 0.05-0.025z"  horiz-adv-x="1024" />

    
    <glyph glyph-name="wode_icon_wodedingdan" unicode="&#58901;" d="M684.3904 426.3936H294.4a30.1056 30.1056 0 0 0-30.0032 30.0032c0 16.4864 13.5168 30.0032 30.0032 30.0032h389.9904c16.4864 0 30.0032-13.5168 30.0032-30.0032a30.1056 30.1056 0 0 0-30.0032-30.0032zM641.6896 221.5936H331.1104c-13.1584 0-23.9104 13.5168-23.9104 30.0032 0 16.4864 10.752 30.0032 23.9104 30.0032h310.5792c13.1584 0 23.9104-13.5168 23.9104-30.0032 0-16.4864-10.752-30.0032-23.9104-30.0032zM590.336 793.6c41.472 0 75.264-39.4752 75.264-88.0128 0-48.4864-33.6896-88.0128-75.1616-88.0128H382.464c-41.472 0-75.264 39.5264-75.264 88.064C307.2 754.0736 340.992 793.6 382.464 793.6h207.872z m0.1024-60.0064H382.3616c-13.1584 0-23.9616-12.5952-23.9616-28.0064 0-15.36 10.752-28.0064 23.9616-28.0064h208.0768c13.1584 0 23.9616 12.5952 23.9616 28.0064 0 15.4112-10.752 28.0064-23.9616 28.0064zM725.4016 23.3984H247.3984c-51.712 0-93.7984 47.3088-93.7984 105.4208V636.928C153.6 695.0912 195.6864 742.4 247.3984 742.4h103.9872v-60.0064h-103.936c-23.1936 0-41.984-20.3776-41.984-45.4144v-508.16c0-25.0368 18.8416-45.4144 41.984-45.4144h477.952c23.1424 0 41.9328 20.3776 41.9328 45.4144V636.928c0 25.0368-18.8416 45.4144-41.984 45.4144h-103.936V742.4h103.936C777.1136 742.4 819.2 695.0912 819.2 636.9792v-508.16c0-58.112-42.0864-105.4208-93.7984-105.4208z"  horiz-adv-x="1024" />

    
    <glyph glyph-name="fanhui" unicode="&#58898;" d="M767.703579-127.353263c-10.293895 0-20.668632 3.664842-28.564211 10.967579L227.813053 357.537684a35.570526 35.570526 0 0 0 0 52.951579l511.353263 473.896421a42.657684 42.657684 0 0 0 57.074526 0 35.570526 35.570526 0 0 0 0-52.951579L313.397895 384l482.816-447.434105a35.570526 35.570526 0 0 0 0-52.951579 41.903158 41.903158 0 0 0-28.510316-10.967579z"  horiz-adv-x="1024" />

    
    <glyph glyph-name="search" unicode="&#58625;" d="M894.3872 76.98636799999997L655.1552 319.39072c52.4288 55.12704 72.761344 122.871808 72.761344 205.053952 0 169.146368-130.610176 305.958912-298.596352 305.958912-167.962624 0-304.633856-137.617408-304.633856-306.763776 0-169.147392 134.541312-299.305984 302.50496-299.305984 70.132736 0 136.737792 16.780288 188.269568 57.020416l240.959488-244.130816c4.405248-4.451328 10.180608-6.677504 15.954944-6.677504 5.776384 0 15.337472 6.816768 19.739648 11.266048C900.921344 50.66751999999997 903.1936 68.08678399999997 894.3872 76.98636799999997zM172.831744 527.427584c0 140.362752 113.378304 254.498816 252.724224 254.498816 139.368448 0 252.7488-114.136064 252.7488-254.498816 0-140.316672-113.381376-254.49984-252.7488-254.49984C286.210048 272.92774399999996 172.831744 387.110912 172.831744 527.427584z"  horiz-adv-x="1024" />

    
    <glyph glyph-name="zhuanti1" unicode="&#58885;" d="M678.4 25.7536a45.3632 45.3632 0 0 0-21.9136 5.7344l-218.4192 124.3136-218.3168-124.3136a44.544 44.544 0 0 0-43.8272 0 42.5984 42.5984 0 0 0-21.9136 37.376L153.6 640.8704h568.6272v-572.0064a42.5472 42.5472 0 0 0-21.9136-37.376 44.3904 44.3904 0 0 0-21.9136-5.7344zM215.04 588.3904a7.68 7.68 0 0 1-7.7312-7.6288v-495.7696l217.4976 123.8016a26.88 26.88 0 0 0 26.624 0l217.4976-123.8016V580.7616a7.68 7.68 0 0 1-7.68 7.6288H214.9888zM771.8912 381.3888V689.8176H283.648V742.2464L825.1904 742.4v-361.1136zM773.12 332.8h51.2v-102.4h-51.2zM305.152 415.5904V467.968h266.0352l-0.1024-52.3776H305.152z m0-108.544V359.424h168.448l-0.1024-52.3776H305.152z"  horiz-adv-x="1024" />

    
    <glyph glyph-name="wode" unicode="&#58629;" d="M1016.83-48.12800000000004c0-21.504-17.408-38.912-38.912-38.912-21.504 0-38.912 17.408-38.912 38.912v20.992c0 97.28-198.144 235.008-425.472 235.008-180.736 0-428.544-115.712-428.544-230.912v-25.088c0-21.504-17.408-38.912-38.912-38.912S7.166-69.63199999999995 7.166-48.12800000000004v48.64c0 58.368 86.528 207.872 322.56 263.168-84.992 58.368-141.312 156.16-141.312 267.264 0 178.688 144.896 323.584 323.584 323.584 178.688 0 323.584-144.896 323.584-323.584 0-109.056-54.272-205.312-137.216-264.192 238.592-53.248 318.464-210.432 318.464-266.24v-48.64zM757.76 531.456c0 135.68-110.08 245.76-245.76 245.76s-245.76-110.08-245.76-245.76S376.32 285.696 512 285.696s245.76 110.08 245.76 245.76z"  horiz-adv-x="1024" />

    
    <glyph glyph-name="youhuiquan" unicode="&#58963;" d="M772.267 832c-34.134 59.733-115.2 81.067-174.934 46.933L426.667 780.8 396.8 797.867C332.8 832 256 814.933 221.867 750.933L72.533 490.667h896L772.267 832zM640 802.133c21.333 12.8 46.933 4.267 59.733-17.066l140.8-247.467L512 725.333l128 76.8z m-469.333-268.8L277.333 716.8c17.067 29.867 55.467 42.667 85.334 21.333l85.333-51.2 277.333-153.6H170.667zM426.667 341.333h170.666c25.6 0 42.667-17.066 42.667-42.666S622.933 256 597.333 256H426.667c-25.6 0-42.667 17.067-42.667 42.667s17.067 42.666 42.667 42.666z m0-166.4h170.666c25.6 0 42.667-21.333 42.667-42.666S618.667 89.6 597.333 89.6H426.667c-25.6 0-42.667 21.333-42.667 42.667s21.333 42.666 42.667 42.666zM904.533 213.333c0 46.934 21.334 89.6 55.467 115.2v98.134c0 34.133-29.867 64-64 64H128c-34.133 0-64-29.867-64-64v-85.334c42.667-25.6 72.533-72.533 72.533-128s-29.866-102.4-72.533-128V0c0-34.133 29.867-64 64-64h768c34.133 0 64 29.867 64 64v98.133c-34.133 25.6-55.467 68.267-55.467 115.2zM1024 0c0-72.533-55.467-128-128-128H128C55.467-128 0-72.533 0 0V128c38.4 8.533 72.533 42.667 72.533 85.333S42.667 290.133 0 298.667v128c0 72.533 55.467 128 128 128h768c72.533 0 128-55.467 128-128V294.4c-34.133-12.8-55.467-42.667-55.467-81.067 0-38.4 25.6-68.266 55.467-81.066V0z"  horiz-adv-x="1024" />

    
    <glyph glyph-name="shanchu" unicode="&#59086;" d="M824.683976 15.715996a63.315998 63.315998 0 0 0-64.889998-64.889998H296.498991a63.315998 63.315998 0 0 0-64.889998 64.889998V696.759976h593.074983v-681.04298zM361.388989 807.955973a12.289 12.289 0 0 0 13.937 13.860999h310.436991A12.289 12.289 0 0 0 699.69998 807.879973v-37.089999H366.109989c-4.646 0-4.646 37.089999-4.646 37.089999z m653.242981-37.090999H769.084977v37.089999A87.967997 87.967997 0 0 1 681.04198 895.99997H370.605989a87.967997 87.967997 0 0 1-88.043997-88.043997v-37.089999H37.389999A36.565999 36.565999 0 0 1 0.3 733.774975a39.862999 39.862999 0 0 1 37.089999-37.090999h115.842997v-681.04198A144.315996 144.315996 0 0 1 296.873991-128H760.169978A144.315996 144.315996 0 0 1 903.809974 15.641996V696.683976h115.167996a36.565999 36.565999 0 0 1 37.089999 37.089999 40.836999 40.836999 0 0 1-41.659999 37.089999zM528.183985 66.518994a36.565999 36.565999 0 0 1 37.089998 37.089999V515.727981a36.565999 36.565999 0 0 1-37.089998 37.089999 39.862999 39.862999 0 0 1-37.089999-37.089999V103.609993a36.565999 36.565999 0 0 1 37.089999-37.089999m-180.656995 0a36.565999 36.565999 0 0 1 37.089999 37.089999V515.726981a36.565999 36.565999 0 0 1-37.089999 37.089999 39.862999 39.862999 0 0 1-37.089999-37.089999V103.609993a39.862999 39.862999 0 0 1 37.089999-37.089999m361.389989 0a36.565999 36.565999 0 0 1 37.089999 37.089999V515.726981a36.565999 36.565999 0 0 1-37.089999 37.089999 39.862999 39.862999 0 0 1-37.090999-37.089999V103.609993a36.565999 36.565999 0 0 1 37.089999-37.089999"  horiz-adv-x="1056" />

    


  </font>
</defs>
</svg>
